<svg xmlns="http://www.w3.org/2000/svg" viewBox="0 0 36 32"><path d="M18 0c.57 0 1.1.32 1.34.84l4.3 8.84 9.57 1.4a1.5 1.5 0 0 1 .83 2.56l-6.94 6.88 1.64 9.73a1.5 1.5 0 0 1-2.18 1.57l-8.57-4.57-8.55 4.57a1.5 1.5 0 0 1-1.58-.1c-.47-.34-.7-.92-.61-1.48l1.64-9.72-6.94-6.88a1.5 1.5 0 0 1 .83-2.55l9.58-1.41L16.64.84A1.5 1.5 0 0 1 18 0m0 4.94-3.28 6.76a1.5 1.5 0 0 1-1.13.83l-7.4 1.09 5.37 5.32c.35.34.51.83.43 1.31l-1.27 7.48 6.58-3.51c.44-.24.97-.24 1.4 0l6.58 3.51-1.26-7.47c-.08-.49.08-.97.43-1.31l5.36-5.32-7.39-1.1a1.5 1.5 0 0 1-1.13-.83Zm0 0"/></svg>