<svg xmlns="http://www.w3.org/2000/svg" viewBox="0 0 32 32"><path d="M2.27 22.55.84 27.44l-.78 2.63a1.5 1.5 0 0 0 1.86 1.88l2.64-.79 4.89-1.43q.97-.3 1.78-.91l.02.01.03-.05.25-.2.25-.24 19.01-19a4 4 0 0 0 0-5.66L28.33 1.2a4 4 0 0 0-5.65 0l-19.02 19-.44.5-.05.04.01.02q-.62.8-.9 1.78m21.66-10.61-11.6 11.6-3.1-.78-.78-3.1 11.6-11.6ZM6.06 22.43l.48 1.94c.14.54.56.96 1.1 1.1l1.93.48-.46.7a2 2 0 0 1-.5.2l-1.47.44-3.43 1 1-3.43.44-1.46q.08-.27.21-.5Zm13.65-8.76a1 1 0 0 0-1.41-1.41l-6 6a1 1 0 0 0 0 1.4 1 1 0 0 0 1.4 0Zm0 0"/></svg>