<svg xmlns="http://www.w3.org/2000/svg" viewBox="0 0 32 32"><path d="M12.52 5.1a3.93 3.93 0 0 1 6.96 0 1.5 1.5 0 0 0 1.77.72 3.95 3.95 0 0 1 4.93 4.93c-.22.69.09 1.43.73 1.76a3.94 3.94 0 0 1 0 6.97 1.5 1.5 0 0 0-.73 1.76 3.94 3.94 0 0 1-4.93 4.92 1.5 1.5 0 0 0-1.76.73 3.94 3.94 0 0 1-6.97 0 1.5 1.5 0 0 0-1.76-.73 3.94 3.94 0 0 1-4.94-4.91 1.5 1.5 0 0 0-.73-1.76 3.95 3.95 0 0 1 0-6.97 1.5 1.5 0 0 0 .73-1.77 3.95 3.95 0 0 1 4.93-4.93c.69.22 1.43-.09 1.76-.73ZM16 0a7 7 0 0 0-5.5 2.71 6.95 6.95 0 0 0-7.8 7.79 6.92 6.92 0 0 0 .01 11 6.95 6.95 0 0 0 7.79 7.8 6.92 6.92 0 0 0 11-.01 6.95 6.95 0 0 0 7.8-7.79 6.92 6.92 0 0 0-.01-11 6.95 6.95 0 0 0-7.79-7.8A6.9 6.9 0 0 0 16 0m7.06 13.06a1.5 1.5 0 1 0-2.11-2.11L14 17.88l-2.94-2.93a1.5 1.5 0 1 0-2.12 2.12l4 4a1.5 1.5 0 0 0 2.12 0Zm0 0"/></svg>