<svg xmlns="http://www.w3.org/2000/svg" viewBox="0 0 36 32"><path d="M9.75 2c-3.46 0-6.7.91-8.05 1.35A2.4 2.4 0 0 0 0 5.7v19.52c0 1.63 1.5 2.76 3 2.51a39 39 0 0 1 6.25-.48c3.38 0 6.1 1.6 7.03 2.23.47.3 1.05.52 1.69.52.72 0 1.35-.26 1.83-.62a12 12 0 0 1 6.95-2.13 37 37 0 0 1 6.19.45A2.6 2.6 0 0 0 36 25.16V5.7c0-1.04-.64-2.01-1.7-2.35A28 28 0 0 0 26.25 2c-2.3 0-4.49.4-6.09.8q-1.21.3-1.93.54L18 3.4q-1.06-.35-2.16-.62A27 27 0 0 0 9.75 2m6.75 4.08v20.04a16 16 0 0 0-7.25-1.87c-2.68 0-4.84.23-6.25.45V6.08C4.4 5.66 7.02 5 9.75 5a23 23 0 0 1 6.75 1.08m3 19.95V6.08q.57-.17 1.38-.37c1.46-.36 3.4-.71 5.37-.71 2.73 0 5.36.66 6.75 1.08v18.59c-1.36-.2-3.43-.42-6.25-.42-3.21 0-5.68.94-7.25 1.79Zm0 0"/></svg>